HIERARCHY
ROOT hip
{
  OFFSET 0 0 0
  CHANNELS 6 Xposition Yposition Zposition Zrotation Yrotation Xrotation
  JOINT abdomen
  {
    OFFSET 0 20.6881 -0.73152
    CHANNELS 3 Zrotation Xrotation Yrotation
    JOINT chest
    {
      OFFSET 0 11.7043 -0.48768
      CHANNELS 3 Zrotation Xrotation Yrotation
      JOINT neck
      {
        OFFSET 0 22.1894 -2.19456
        CHANNELS 3 Zrotation Xrotation Yrotation
        JOINT head
        {
          OFFSET -0.24384 7.07133 1.2192
          CHANNELS 3 Zrotation Xrotation Yrotation
          JOINT leftEye
          {
            OFFSET 4.14528 8.04674 8.04672
            CHANNELS 3 Zrotation Xrotation Yrotation
            End Site
            {
              OFFSET 1 0 0
            }
          }
          JOINT rightEye
          {
            OFFSET -3.6576 8.04674 8.04672
            CHANNELS 3 Zrotation Xrotation Yrotation
            End Site
            {
              OFFSET 1 0 0
            }
          }
        }
      }
      JOINT rCollar
      {
        OFFSET -2.68224 19.2634 -4.8768
        CHANNELS 3 Zrotation Xrotation Yrotation
        JOINT rShldr
        {
          OFFSET -8.77824 -1.95073 1.46304
          CHANNELS 3 Zrotation Xrotation Yrotation
          JOINT rForeArm
          {
            OFFSET -28.1742 -1.7115 0.48768
            CHANNELS 3 Zrotation Xrotation Yrotation
            JOINT rHand
            {
              OFFSET -22.5879 0.773209 7.07136
              CHANNELS 3 Zrotation Xrotation Yrotation
              JOINT rThumb1
              {
                OFFSET -1.2192 -0.487915 3.41376
                CHANNELS 3 Zrotation Xrotation Yrotation
                JOINT rThumb2
                {
                  OFFSET -3.37035 -0.52449 3.41376
                  CHANNELS 3 Zrotation Xrotation Yrotation
                  End Site
                  {
                    OFFSET -1.78271 -1.18214 1.43049
                  }
                }
              }
              JOINT rIndex1
              {
                OFFSET -7.75947 0.938293 5.60832
                CHANNELS 3 Zrotation Xrotation Yrotation
                JOINT rIndex2
                {
                  OFFSET -2.54057 -0.884171 1.56538
                  CHANNELS 3 Zrotation Xrotation Yrotation
                  End Site
                  {
                    OFFSET -1.62519 -0.234802 1.16502
                  }
                }
              }
              JOINT rMid1
              {
                OFFSET -8.24714 1.18213 3.41376
                CHANNELS 3 Zrotation Xrotation Yrotation
                JOINT rMid2
                {
                  OFFSET -3.10165 -0.590103 1.0647
                  CHANNELS 3 Zrotation Xrotation Yrotation
                  End Site
                  {
                    OFFSET -2.48547 -0.328903 0.83742
                  }
                }
              }
              JOINT rRing1
              {
                OFFSET -8.82822 0.546677 1.51678
                CHANNELS 3 Zrotation Xrotation Yrotation
                JOINT rRing2
                {
                  OFFSET -2.60934 -0.819778 -0.0198488
                  CHANNELS 3 Zrotation Xrotation Yrotation
                  End Site
                  {
                    OFFSET -2.33842 -0.294052 0.168128
                  }
                }
              }
              JOINT rPinky1
              {
                OFFSET -8.27202 -0.0477905 -0.4584
                CHANNELS 3 Zrotation Xrotation Yrotation
                JOINT rPinky2
                {
                  OFFSET -1.82734 -0.647385 -0.700984
                  CHANNELS 3 Zrotation Xrotation Yrotation
                  End Site
                  {
                    OFFSET -1.69225 -0.51767 -0.607171
                  }
                }
              }
            }
          }
        }
      }
      JOINT lCollar
      {
        OFFSET 2.68224 19.2634 -4.8768
        CHANNELS 3 Zrotation Xrotation Yrotation
        JOINT lShldr
        {
          OFFSET 8.77824 -1.95073 1.46304
          CHANNELS 3 Zrotation Xrotation Yrotation
          JOINT lForeArm
          {
            OFFSET 28.1742 -1.7115 0.48768
            CHANNELS 3 Zrotation Xrotation Yrotation
            JOINT lHand
            {
              OFFSET 22.5879 0.773209 7.07136
              CHANNELS 3 Zrotation Xrotation Yrotation
              JOINT lThumb1
              {
                OFFSET 1.2192 -0.487915 3.41376
                CHANNELS 3 Zrotation Xrotation Yrotation
                JOINT lThumb2
                {
                  OFFSET 3.37035 -0.52449 3.41376
                  CHANNELS 3 Zrotation Xrotation Yrotation
                  End Site
                  {
                    OFFSET 1.78271 -1.18214 1.43049
                  }
                }
              }
              JOINT lIndex1
              {
                OFFSET 7.75947 0.938293 5.60832
                CHANNELS 3 Zrotation Xrotation Yrotation
                JOINT lIndex2
                {
                  OFFSET 2.54057 -0.884171 1.56538
                  CHANNELS 3 Zrotation Xrotation Yrotation
                  End Site
                  {
                    OFFSET 1.62519 -0.234802 1.16502
                  }
                }
              }
              JOINT lMid1
              {
                OFFSET 8.24714 1.18213 3.41376
                CHANNELS 3 Zrotation Xrotation Yrotation
                JOINT lMid2
                {
                  OFFSET 3.10165 -0.590103 1.0647
                  CHANNELS 3 Zrotation Xrotation Yrotation
                  End Site
                  {
                    OFFSET 2.48547 -0.328903 0.83742
                  }
                }
              }
              JOINT lRing1
              {
                OFFSET 8.82822 0.546677 1.51678
                CHANNELS 3 Zrotation Xrotation Yrotation
                JOINT lRing2
                {
                  OFFSET 2.60934 -0.819778 -0.0198488
                  CHANNELS 3 Zrotation Xrotation Yrotation
                  End Site
                  {
                    OFFSET 2.33842 -0.294052 0.168128
                  }
                }
              }
              JOINT lPinky1
              {
                OFFSET 8.27202 -0.0477905 -0.4584
                CHANNELS 3 Zrotation Xrotation Yrotation
                JOINT lPinky2
                {
                  OFFSET 1.82734 -0.647385 -0.700984
                  CHANNELS 3 Zrotation Xrotation Yrotation
                  End Site
                  {
                    OFFSET 1.69225 -0.51767 -0.607171
                  }
                }
              }
            }
          }
        }
      }
    }
  }
  JOINT rButtock
  {
    OFFSET -8.77824 4.35084 1.2192
    CHANNELS 3 Zrotation Xrotation Yrotation
    JOINT rThigh
    {
      OFFSET 0 -1.70687 -2.19456
      CHANNELS 3 Zrotation Xrotation Yrotation
      JOINT rShin
      {
        OFFSET 0 -36.8199 0.73152
        CHANNELS 3 Zrotation Xrotation Yrotation
        JOINT rFoot
        {
          OFFSET 0.73152 -45.1104 -5.12064
          CHANNELS 3 Zrotation Xrotation Yrotation
          End Site
          {
            OFFSET -1.1221 -3.69964 12.103
          }
        }
      }
    }
  }
  JOINT lButtock
  {
    OFFSET 8.77824 4.35084 1.2192
    CHANNELS 3 Zrotation Xrotation Yrotation
    JOINT lThigh
    {
      OFFSET 0 -1.70687 -2.19456
      CHANNELS 3 Zrotation Xrotation Yrotation
      JOINT lShin
      {
        OFFSET 0 -36.8199 0.73152
        CHANNELS 3 Zrotation Xrotation Yrotation
        JOINT lFoot
        {
          OFFSET -0.73152 -45.1104 -5.12064
          CHANNELS 3 Zrotation Xrotation Yrotation
          End Site
          {
            OFFSET 1.1221 -3.69964 12.103
          }
        }
      }
    }
  }
}
MOTION
Frames:	4
Frame Time:	0.03333
-13.4502 70.4956 23.8436 -6.593600000000001 13.889399999999998 712.3799999999999 -1.42945 20.5017 -3.40624 6.87935 -8.32167 -0.420857 -7.97076 16.4278 -1.1961700000000002 15.1383 -27.001099999999997 1.22699 -0.0 0.0 0.0 -0.0 0.0 0.0 -4.39321e-14 2.88592e-14 8.84122e-14 18.1319 35.48460000000001 51.7464 -26.9833 -26.284300000000005 61.3449 -0.0031819600000000006 1.45558 0.20501 5.636390000000001e-10 1.91495e-09 -1.0104899999999999e-09 9.71672e-10 3.305e-09 -1.7443500000000003e-09 5.63637e-10 1.91495e-09 -1.01051e-09 7.730909999999999 5.47488 0.417314 5.636379999999999e-10 1.91495e-09 -1.0105e-09 2.90554 0.965183 0.102902 5.636429999999998e-10 1.91494e-09 -1.0104899999999999e-09 10.278600000000003 0.731801 0.0259123 5.636319999999999e-10 1.91495e-09 -1.0104899999999999e-09 2.22167 -0.733487 -0.20892000000000002 -4.38847e-14 2.88599e-14 8.833069999999999e-14 15.2692 6.24382 -111.28900000000002 26.033899999999996 -46.2064 -95.9872 0.245218 -13.850700000000002 1.98756 9.69825e-10 1.6295900000000002e-09 1.3735100000000003e-10 1.6699000000000002e-09 2.8187500000000004e-09 2.44964e-10 9.69823e-10 1.6295900000000002e-09 1.37369e-10 -7.730909999999999 5.47488 -0.417314 9.69826e-10 1.6295900000000002e-09 1.3734999999999997e-10 -2.90554 0.965183 -0.102902 9.69818e-10 1.6295900000000002e-09 1.3735100000000003e-10 -10.278600000000003 0.731801 -0.0259123 9.6983e-10 1.6295900000000002e-09 1.3733900000000003e-10 -2.22167 -0.733487 0.20892000000000002 -2.03217e-16 0.0 -3.88251e-19 5.755139999999999 -58.1296 8.19301 -0.5808339999999999 47.693 0.6531910000000001 -2.5745 15.859299999999998 12.4069 2.03217e-16 0.0 3.88251e-19 -13.367400000000002 -38.5606 -13.2165 4.81084 80.4161 -6.02928 9.755969999999998 -12.5137 22.2204
-13.620399999999998 70.3024 22.2751 -5.6918 7.543500000000001 713.757 -2.9086 20.8983 -1.16034 6.073320000000001 -8.43897 0.07170469999999998 -7.7544 15.9295 -0.0520225 15.210500000000001 -27.6153 3.67048 -0.0 0.0 0.0 -0.0 0.0 0.0 1.488e-14 -1.2749199999999996e-13 -1.32265e-13 12.8416 37.639100000000006 58.1074 -27.0126 -26.3813 61.4923 -0.00954145 -1.87637 -0.263896 1.15151e-09 4.07686e-09 -3.38738e-10 1.99059e-09 7.04728e-09 -5.85566e-10 1.15152e-09 4.07686e-09 -3.3875699999999995e-10 7.730909999999999 5.47488 0.417314 1.15151e-09 4.07686e-09 -3.3874600000000006e-10 2.90554 0.965183 0.102902 1.15152e-09 4.07686e-09 -3.3874300000000004e-10 10.278600000000003 0.731801 0.0259123 1.15151e-09 4.07686e-09 -3.3873600000000003e-10 2.22167 -0.733487 -0.20892000000000002 1.49174e-14 -1.2749300000000004e-13 -1.32351e-13 16.1915 0.0812622 -110.555 26.267 -45.7389 -94.9929 0.154955 -10.8449 1.54388 8.61318e-10 2.29561e-09 -1.02476e-09 1.4999100000000003e-09 3.973970000000001e-09 -1.76403e-09 8.613150000000001e-10 2.29561e-09 -1.02474e-09 -7.730909999999999 5.47488 -0.417314 8.613190000000001e-10 2.29561e-09 -1.02476e-09 -2.90554 0.965183 -0.102902 8.61311e-10 2.29561e-09 -1.02476e-09 -10.278600000000003 0.731801 -0.0259123 8.613250000000001e-10 2.29561e-09 -1.02477e-09 -2.22167 -0.733487 0.20892000000000002 -2.03217e-16 0.0 -3.88251e-19 6.71133 -59.71159999999999 6.88031 -0.715528 52.0422 0.851049 -1.06847 10.4532 9.76203 2.03217e-16 0.0 3.88251e-19 -12.0842 -40.4798 -9.80841 4.56759 79.9953 -5.785290000000001 10.158800000000001 -11.8839 23.7569
-13.7354 69.9726 20.7429 -5.097200000000001 2.0153 714.727 -4.24464 21.2835 0.662625 5.16418 -8.78344 0.454206 -7.52666 15.8223 1.00367 15.121699999999999 -28.5426 5.89606 -0.0 0.0 0.0 -0.0 0.0 0.0 1.0273399999999998e-13 -7.4135e-14 -1.05818e-14 6.92363 39.3214 64.7075 -27.1489 -26.8528 62.259800000000006 -0.033799899999999994 -4.66615 -0.658396 3.8634099999999995e-11 -1.3958800000000001e-10 6.38594e-10 6.55157e-11 -2.45076e-10 1.10397e-09 3.86447e-11 -1.3957200000000003e-10 6.38567e-10 7.730909999999999 5.47488 0.417314 3.86335e-11 -1.39587e-10 6.385929999999999e-10 2.90554 0.965183 0.102902 3.8651e-11 -1.3957e-10 6.385850000000001e-10 10.278600000000003 0.731801 0.0259123 3.8631e-11 -1.39584e-10 6.38597e-10 2.22167 -0.733487 -0.20892000000000002 1.0276700000000001e-13 -7.41391e-14 -1.0834199999999998e-14 16.8816 -5.1983 -110.168 26.5085 -45.2132 -93.9043 0.101487 -8.28141 1.17276 4.5299799999999997e-10 1.8437500000000002e-09 2.55511e-12 7.85919e-10 3.18905e-09 8.63723e-12 4.5299799999999997e-10 1.84374e-09 2.57452e-12 -7.730909999999999 5.47488 -0.417314 4.53001e-10 1.8437500000000002e-09 2.55956e-12 -2.90554 0.965183 -0.102902 4.5299499999999994e-10 1.8437500000000002e-09 2.5575199999999998e-12 -10.278600000000003 0.731801 -0.0259123 4.53003e-10 1.8437500000000002e-09 2.5472099999999996e-12 -2.22167 -0.733487 0.20892000000000002 -2.03217e-16 0.0 -3.88251e-19 7.23898 -60.8354 5.60698 -1.00428 58.3753 1.25323 -0.159995 5.91119 8.24115 2.03217e-16 0.0 3.88251e-19 -10.076300000000002 -42.84799999999999 -5.416200000000001 4.76992 80.3395 -5.97977 10.5693 -10.9315 25.5646
-13.798400000000003 69.52 19.2935 -4.7301 -3.0379000000000005 715.2960000000002 -5.31655 21.7758 2.1547199999999997 4.35709 -9.190639999999998 0.7558979999999998 -7.365799999999999 15.5576 1.9608600000000003 15.033 -29.098100000000006 7.904540000000001 -0.0 0.0 0.0 -0.0 0.0 0.0 1.70626e-13 -2.4049499999999998e-14 3.67833e-14 0.7528019999999999 40.062400000000004 71.3914 -27.3678 -27.6465 63.47089999999999 -0.0827558 -8.65482 -1.22368 -5.703280000000001e-10 -2.5254099999999995e-09 1.3310999999999999e-09 -9.9369e-10 -4.375890000000001e-09 2.29827e-09 -5.70315e-10 -2.5253900000000005e-09 1.33107e-09 7.730909999999999 5.47488 0.417314 -5.70329e-10 -2.5254099999999995e-09 1.3310999999999999e-09 2.90554 0.965183 0.102902 -5.70311e-10 -2.5253900000000005e-09 1.33109e-09 10.278600000000003 0.731801 0.0259123 -5.70332e-10 -2.5254099999999995e-09 1.3310999999999999e-09 2.22167 -0.733487 -0.20892000000000002 1.7066900000000002e-13 -2.40556e-14 3.64991e-14 16.965600000000002 -9.07852 -109.255 26.7708 -44.6083 -92.6551 -0.0156752 -3.15626 0.444027 2.63294e-10 1.25184e-09 9.769390000000002e-11 4.53603e-10 2.16162e-09 1.69631e-10 2.63291e-10 1.25184e-09 9.77158e-11 -7.730909999999999 5.47488 -0.417314 2.6329499999999997e-10 1.25184e-09 9.77029e-11 -2.90554 0.965183 -0.102902 2.63289e-10 1.25184e-09 9.76991e-11 -10.278600000000003 0.731801 -0.0259123 2.63297e-10 1.25184e-09 9.76912e-11 -2.22167 -0.733487 0.20892000000000002 -2.03217e-16 0.0 -3.88251e-19 6.86422 -61.4618 4.25338 -1.51574 65.34519999999999 1.85669 0.253929 2.1325499999999997 5.75661 2.03217e-16 0.0 3.88251e-19 -7.38361 -45.2914 -0.860447 5.36464 81.1973 -6.53969 10.7042 -10.3501 26.4451
